<svg width="125" height="121" viewBox="0 0 125 121" fill="none" xmlns="http://www.w3.org/2000/svg">
<path d="M0.637633 23.7367C0.705528 23.5961 0.786356 23.4587 0.838086 23.3117C1.94705 20.2151 3.84812 18.873 7.20086 18.873C18.9371 18.8666 30.6733 18.873 42.4128 18.873C42.8945 18.873 43.373 18.873 43.9258 18.873C44.0649 18.1444 44.1392 17.4733 44.3203 16.8342C45.2708 13.466 47.4467 11.2227 50.8156 10.1841C51.5075 9.97001 51.7759 9.66642 51.9407 9.01772C53.1952 4.06133 57.4855 0.734705 62.5777 0.725118C67.6763 0.715531 71.9828 4.05174 73.289 8.96339C73.399 9.38201 73.7611 9.94125 74.1264 10.0563C78.1355 11.3249 80.4698 13.9709 81.1132 18.0773C81.139 18.2338 81.1617 18.3936 81.2005 18.547C81.2199 18.6205 81.2748 18.6844 81.3783 18.8698H82.7394C94.3948 18.8698 106.053 18.9624 117.709 18.825C122.174 18.7739 124.628 21.9375 124.612 25.6413C124.518 47.6494 124.518 69.6607 124.612 91.6689C124.628 95.4269 122.09 98.5138 117.693 98.4723C103.981 98.3413 90.2661 98.4244 76.5545 98.4244C76.0727 98.4244 75.591 98.4244 74.912 98.4244C75.3421 99.9167 75.7462 101.304 76.1471 102.694C76.4898 103.879 76.8616 105.058 77.1591 106.257C77.324 106.915 77.6537 107.139 78.3392 107.129C79.9492 107.1 81.5723 107.068 83.1759 107.2C88.3554 107.621 92.358 111.833 92.5261 116.946C92.594 118.985 91.2652 120.34 89.0505 120.359C84.3334 120.401 79.613 120.391 74.8927 120.401C62.1057 120.42 49.3219 120.439 36.5349 120.452C33.5993 120.455 32.2802 118.934 32.7005 116.048C33.4311 111.041 37.6374 107.34 42.7425 107.235C44.1134 107.206 45.4874 107.251 46.8551 107.203C47.1881 107.19 47.7345 106.998 47.8024 106.778C48.643 104.049 49.4124 101.297 50.2337 98.4308H48.6268C35.1156 98.4308 21.6044 98.4308 8.0932 98.4308C3.69616 98.4308 2.28006 97.5168 0.634399 93.615C0.637633 70.319 0.637633 47.0294 0.637633 23.7367ZM62.7264 22.4616C44.372 22.4616 26.0176 22.4616 7.6632 22.4616C4.91828 22.4616 4.26842 23.1135 4.26842 25.8649C4.26842 47.758 4.26842 69.6511 4.26842 91.5442C4.26842 94.1295 4.96678 94.8357 7.53387 94.8357C44.2427 94.8357 80.9515 94.8357 117.664 94.8357C120.237 94.8357 120.939 94.1295 120.939 91.5506C120.939 69.7374 120.939 47.9242 120.939 26.111C120.939 23.0241 120.383 22.4648 117.308 22.4648C99.1152 22.4648 80.9224 22.4648 62.7264 22.4648V22.4616ZM73.6576 107.168C72.8073 104.228 72.0378 101.521 71.2101 98.8334C71.1455 98.6289 70.6379 98.4435 70.3372 98.4435C65.1771 98.4212 60.0138 98.4371 54.8538 98.4116C54.2072 98.4116 53.9453 98.6321 53.7804 99.236C53.1305 101.617 52.4225 103.985 51.75 106.359C51.6821 106.602 51.7047 106.87 51.6789 107.225C52.7781 107.225 53.7836 107.18 54.7859 107.238C55.7526 107.292 56.383 107.848 56.4477 108.816C56.5124 109.817 55.9757 110.488 54.9799 110.718C54.5951 110.807 54.1781 110.791 53.7772 110.791C50.0688 110.804 46.3572 110.763 42.6488 110.836C39.2702 110.903 36.3571 113.77 36.4961 116.77H88.8565C88.7498 116.198 88.711 115.729 88.5687 115.291C87.6505 112.431 85.2031 110.715 81.9376 110.711C75.5263 110.705 69.1151 110.743 62.7038 110.756C62.3029 110.756 61.8923 110.756 61.5043 110.67C60.5247 110.446 60.1173 109.766 60.1755 108.813C60.2337 107.903 60.7251 107.321 61.666 107.222C62.2641 107.158 62.8752 107.171 63.4797 107.171C66.784 107.168 70.085 107.171 73.6641 107.171L73.6576 107.168ZM62.6262 4.31378C58.5201 4.3042 55.2515 7.52217 55.2579 11.571C55.2644 15.6071 58.5783 18.8762 62.6359 18.8474C66.6676 18.8186 69.9104 15.6134 69.9427 11.6189C69.9751 7.56691 66.7258 4.32017 62.6262 4.31059V4.31378ZM54.0778 18.8122C53.2599 17.1505 52.4386 15.4856 51.6045 13.7951C49.3995 14.3416 47.6795 16.537 47.8218 18.8122H54.0811H54.0778ZM73.5994 13.7919C72.7717 15.4633 71.957 17.109 71.139 18.7643H77.4597C77.2561 16.1918 75.7333 14.316 73.5962 13.7919H73.5994Z" fill="white"/>
<path d="M12.1347 57.0932H22.7622C22.4637 52.5278 25.5724 50.5468 29.2036 49.0207C26.9028 44.7877 27.3377 40.3739 30.255 37.9186C32.5946 35.9473 36.4043 35.8763 38.8153 37.7605C41.9046 40.1739 42.4011 44.4553 40.0711 49.0401C43.9425 50.3016 46.5742 52.6117 46.6066 57.0706H60.7257V29.8623C60.1806 29.8623 59.7068 29.8623 59.2298 29.8623C52.6294 29.8623 46.0323 29.8623 39.4319 29.8623C39.0263 29.8623 38.6206 29.8752 38.2182 29.8365C37.1312 29.7365 36.4659 29.0492 36.4659 28.0587C36.4659 27.0682 37.1312 26.3778 38.215 26.2616C38.4941 26.2326 38.7796 26.239 39.0652 26.239C63.0719 26.239 87.0818 26.239 111.088 26.239C114.084 26.239 116.044 27.5877 116.663 30.0849C116.787 30.585 116.813 31.1206 116.813 31.64C116.819 49.5143 116.822 67.3919 116.813 85.2662C116.813 88.6378 114.778 90.6898 111.377 90.6898C78.8686 90.6995 46.3568 90.6995 13.8481 90.6898C10.4538 90.6898 8.43217 88.6313 8.43217 85.2468C8.42568 67.4112 8.42568 49.5756 8.43217 31.7433C8.43217 28.2942 10.4538 26.2584 13.9325 26.2455C19.4393 26.2229 24.9461 26.2164 30.4497 26.2713C31.1084 26.2777 31.9359 26.5423 32.3675 26.9908C32.7114 27.3489 32.812 28.2878 32.5816 28.7492C32.3318 29.246 31.5887 29.7494 31.024 29.7945C29.3366 29.9365 27.6265 29.8623 25.9261 29.8623C21.9996 29.8623 18.0731 29.8558 14.1434 29.8655C12.4463 29.8687 12.0763 30.2462 12.0731 31.9336C12.0731 39.9448 12.0731 47.956 12.0731 55.9672C12.0731 56.3188 12.1088 56.6738 12.1347 57.09V57.0932ZM60.6835 87.0149V60.8584H12.1834C12.138 61.0391 12.0861 61.1552 12.0861 61.2682C12.0796 69.3568 12.0763 77.4454 12.0796 85.534C12.0796 86.66 12.7545 87.0794 13.8092 87.0762C16.561 87.0698 19.3127 87.0762 22.0645 87.0698C22.2917 87.0698 22.5188 86.9956 22.7784 86.9504C22.6162 82.4334 25.6535 80.4847 29.1744 78.9489C26.9093 74.3125 27.3864 70.1247 30.4302 67.7048C32.7828 65.8335 36.5503 65.8432 38.8932 67.7307C41.9046 70.1505 42.3881 74.4513 40.2366 78.6617C41.7683 79.7071 43.407 80.5944 44.7505 81.8043C46.214 83.1239 46.5612 85.0532 46.6358 87.0181H60.6868L60.6835 87.0149ZM113.169 60.852H64.5256V86.9891H80.0888C80.0628 82.5463 82.727 80.2653 86.5399 78.9682C84.2489 74.6932 84.6675 70.3989 87.5329 67.892C89.7914 65.9142 93.5264 65.7529 95.9861 67.55C97.3426 68.5405 98.1668 69.9053 98.5919 71.5088C99.2863 74.1286 98.9229 76.5968 97.5535 78.6295C99.1435 79.7297 100.782 80.6298 102.126 81.8527C103.579 83.1755 103.875 85.121 103.988 87.073C106.406 87.073 108.71 87.0762 111.011 87.073C112.851 87.0665 113.165 86.7439 113.165 84.8629C113.165 77.6583 113.165 70.457 113.165 63.2524C113.165 62.491 113.165 61.7295 113.165 60.8552L113.169 60.852ZM79.2775 57.0835C77.6388 56.2995 77.2461 55.7413 77.1683 54.1701C77.1261 53.286 77.1261 52.3988 77.1683 51.5147C77.2007 50.8243 76.9768 50.479 76.2921 50.1758C73.563 48.9691 72.119 46.8397 72.0736 43.8359C72.0541 42.6292 72.0541 41.4193 72.0736 40.2126C72.1417 36.4603 74.9681 33.4726 78.7259 33.4242C85.0017 33.3404 91.2776 33.35 97.5535 33.4178C101.185 33.4565 103.972 36.1925 104.229 39.7996C104.319 41.0805 104.303 42.3743 104.274 43.6616C104.173 47.9237 101.314 50.7081 97.0116 50.7436C94.3799 50.7662 91.7287 50.9436 89.1229 50.692C86.647 50.4532 85.0666 51.3018 83.7394 53.3183C82.8178 54.7185 81.9319 56.2737 79.933 57.0771H113.169V55.8188C113.169 47.927 113.169 40.0352 113.169 32.1434C113.169 30.1656 112.857 29.8558 110.826 29.8558C95.8434 29.8558 80.8643 29.8558 65.8821 29.8558H64.5191V57.0803H79.2775V57.0835ZM80.8481 51.1953C81.4939 50.3887 82.0196 49.8757 82.37 49.2627C83.3922 47.4591 84.8979 46.9719 86.926 47.0687C90.3203 47.23 93.7243 47.1462 97.1251 47.1171C99.2701 47.0978 100.536 45.8717 100.623 43.7681C100.672 42.5614 100.678 41.3515 100.604 40.1481C100.487 38.2897 99.2604 37.1217 97.3912 37.0314C96.5443 36.9894 95.6908 37.0185 94.8406 37.0185C89.6583 37.0185 84.476 37.0056 79.2937 37.0249C77.0222 37.0346 75.7469 38.3058 75.7177 40.5288C75.7015 41.6548 75.6918 42.7841 75.7275 43.9101C75.7761 45.5071 76.7334 46.6525 78.2716 47.0236C80.6891 47.6075 80.7183 47.643 80.7767 50.1435C80.7832 50.3823 80.8092 50.6178 80.8481 51.1921V51.1953ZM42.9268 87.0181C42.9203 85.3436 42.3492 84.1047 40.9538 83.2949C36.7775 80.8686 32.5979 80.8622 28.4183 83.2852C26.9677 84.1241 26.3382 85.3694 26.5589 87.0181H42.9268ZM100.257 86.9956C100.263 85.2985 99.6433 84.0563 98.2025 83.24C94.0943 80.9138 89.9893 80.9009 85.8681 83.211C84.3689 84.0531 83.681 85.3081 83.8822 86.9956H100.257ZM42.9041 57.0996C42.9917 55.2928 42.2161 54.1055 40.8143 53.3054C36.6671 50.9275 32.5232 50.9695 28.3956 53.3796C26.9515 54.2217 26.296 55.5316 26.5848 57.0996H42.9008H42.9041ZM37.9165 73.8415C37.9165 71.7895 37.1247 70.5376 35.5476 70.0892C33.7531 69.5794 31.9846 70.5634 31.4718 72.3573C30.7839 74.761 31.7152 77.0001 33.6492 77.5873C36.0181 78.3068 37.9197 76.6388 37.9197 73.8383L37.9165 73.8415ZM95.2528 73.8641C95.2528 71.8056 94.474 70.5505 92.9066 70.0956C91.1186 69.5762 89.3371 70.5505 88.8146 72.338C88.091 74.8094 89.0548 77.055 91.0797 77.6132C93.4193 78.2584 95.2495 76.613 95.2528 73.8673V73.8641ZM37.9165 44.0327C38.1696 40.7643 35.5314 39.5447 33.5065 40.2191C32.0722 40.6966 31.3161 41.9904 31.3096 43.881C31.3031 45.8685 32.043 47.1074 33.5454 47.6301C35.8883 48.4464 37.8937 46.7945 37.9197 44.0295L37.9165 44.0327Z" fill="white"/>
</svg>
